<svg xmlns="http://www.w3.org/2000/svg" width="163" height="40"><g fill="none" fill-rule="evenodd"><path fill="#00AEEF" d="M5.427 2.862S0 2.862 0 8.335v25.932s0 5.427 5.427 5.427h26.006s5.427 0 5.427-5.427V8.335s0-5.427-5.427-5.427L5.427 2.862z"/><path fill="#fc0" fill-rule="nonzero" d="M27.015 7.224h-8.4a1.334 1.334 0 00-1.389.99c-.778 2.909-4.39 14.736-4.39 14.736-.36.926.658.926.658.926h8.4a1.334 1.334 0 001.39-.982c.796-2.926 4.389-14.753 4.389-14.753.37-.926-.658-.926-.658-.926m-5.871 19.856h-8.4a1.335 1.335 0 00-1.39.99c-.778 2.909-1.852 6.373-1.852 6.373-.361.926.658.926.658.926h8.363a1.333 1.333 0 001.389-.982c.778-2.917 1.899-6.38 1.899-6.38.36-.927-.658-.927-.658-.927m50.16-20.884v30.21H61.124V14.06H45.381V6.187h25.931zM45.445 19.829h9.807v16.568h-9.807V19.83zm55.282-13.642l-9.512 30.21H80.75l7.029-22.338H74.906V0h9.632v6.187zm20.541 30.21l-8.622-15.355c-.713.074-1.852.546-1.852 2.574v12.781h-9.188v-10.9c0-4.798 2.029-8.984 7.752-9.679l-6.288-9.631h10.104l8.261 14.114c1.343-.046 1.852-1.26 1.852-4.26V6.187h9.41v9.455c0 5.9-3.066 8.447-8.196 9.086l7.353 11.67h-10.586zm25.904-30.21v30.21h-10.345V6.187zm15.596 0v30.21h-10.354V6.187z"/></g></svg>